<?xml version="1.0" encoding="UTF-8"?>
<svg id="Layer_1" data-name="Layer 1" xmlns="http://www.w3.org/2000/svg" viewBox="0 0 1000 1000">
  <path
    d="m257,182.3c20.8-52.8,82.2-208.5-4-300-71.7-76.2-201.5-61-280-25.3C-109-105.8-176.4-27.5-191,66.3c-25.4,163.3,114.8,340.8,242.7,333.3,122.4-7.1,191-181.1,205.3-217.3Z"
    />
  <path
    d="m154.3,123.7c30.2-64.1,20.9-159.7-42.7-196C44-111-52.4-63.9-88.3,7.7c-35.3,70.3-17.4,174.4,53.3,206.7,70,31.9,157.2-22.4,189.3-90.7Z"
    />
  <path
    d="m1119.2,751.6c-75-83.9-210.1-123.8-312.5-51.9-112.4,78.8-130.2,253.5-66.1,367.7,79,141,278.9,183.4,386.4,75.8,97.4-97.5,86.7-285.9-7.8-391.6Z"
    />
  <path
    d="m831.8,883.2c15.7-69.8,100-97.8,159.5-88.3,38.3,6.1,102.8,33.6,114.6,92.6,15.2,75.7-60.4,182.8-144.2,178-78.6-4.5-147-106.8-130-182.4Z"
    />
  <circle cx="39.1" cy="73.8" r="12.5" fill="none" stroke="#231f20" stroke-miterlimit="10" stroke-width="5" />
  <circle cx="954.1" cy="936.8" r="12.5" fill="none" stroke="#231f20" stroke-miterlimit="10" stroke-width="5" />
</svg>